M48
; DRILL file {KiCad 9.0.0} date 2025-08-07T23:10:13-0700
; FORMAT={-:-/ absolute / metric / decimal}
; #@! TF.CreationDate,2025-08-07T23:10:13-07:00
; #@! TF.GenerationSoftware,Kicad,Pcbnew,9.0.0
; #@! TF.FileFunction,Plated,1,4,PTH
FMAT,2
METRIC
; #@! TA.AperFunction,Plated,PTH,ViaDrill
T1C0.300
; #@! TA.AperFunction,Plated,PTH,ComponentDrill
T2C0.700
; #@! TA.AperFunction,Plated,PTH,ComponentDrill
T3C0.870
; #@! TA.AperFunction,Plated,PTH,ComponentDrill
T4C1.500
%
G90
G05
T1
X102.5Y-95.0
X102.5Y-100.0
X102.5Y-105.0
X102.5Y-110.0
X104.0Y-76.268
X104.8Y-76.268
X105.25Y-80.968
X105.25Y-81.718
X106.07Y-98.988
X106.25Y-80.993
X106.275Y-81.718
X106.29Y-75.818
X106.475Y-79.068
X106.98Y-98.988
X107.6Y-76.021
X107.6Y-76.721
X107.617Y-77.421
X107.63Y-75.138
X107.65Y-92.543
X107.825Y-81.018
X108.076Y-92.969
X108.8Y-80.92
X108.809Y-81.521
X109.33Y-91.793
X109.975Y-91.793
X110.5Y-74.839
X110.66Y-79.228
X110.925Y-95.0
X111.805Y-78.143
X112.5Y-75.0
X114.13Y-85.643
X114.775Y-85.643
X117.5Y-102.5
X120.5Y-94.018
X120.5Y-95.018
X121.5Y-94.018
X121.5Y-95.018
X121.65Y-101.393
X121.65Y-102.018
X122.5Y-75.0
X122.5Y-87.5
X122.5Y-92.5
X127.5Y-75.0
X127.5Y-87.5
X127.5Y-92.5
X128.575Y-93.843
X128.775Y-97.468
X129.35Y-108.475
X129.35Y-109.475
X129.35Y-110.475
X129.475Y-97.968
X129.9Y-81.831
X130.325Y-108.475
X130.35Y-109.475
X130.35Y-110.475
X130.6Y-101.593
X131.25Y-101.593
X131.3Y-80.318
X131.35Y-108.475
X131.35Y-109.475
X131.35Y-110.475
X132.35Y-82.843
X132.8Y-76.843
X133.25Y-80.318
X134.675Y-94.893
X134.675Y-95.893
X135.35Y-76.843
X135.675Y-94.893
X135.675Y-95.893
X137.525Y-82.793
X138.0Y-97.443
X138.7Y-97.943
X138.825Y-87.568
X139.53Y-89.863
X140.0Y-100.0
X140.0Y-105.0
X140.0Y-110.0
X140.175Y-90.478
X140.425Y-76.643
X140.8Y-88.143
X141.725Y-90.618
X142.325Y-90.618
X143.275Y-90.618
X143.825Y-85.468
X143.9Y-90.618
X144.0Y-82.418
X145.0Y-100.0
X145.0Y-105.0
X145.0Y-110.0
X146.45Y-89.968
X149.525Y-74.846
X150.0Y-100.0
X150.0Y-105.0
X150.0Y-110.0
X152.525Y-74.846
X155.0Y-95.0
X155.0Y-110.0
X155.05Y-105.743
X155.131Y-99.869
X155.475Y-74.821
X158.475Y-74.821
X160.0Y-95.0
X160.0Y-100.0
X161.45Y-74.821
X161.9Y-107.418
X161.975Y-92.468
X162.0Y-85.468
X162.0Y-101.493
X162.025Y-108.393
X167.5Y-75.0
X167.5Y-80.0
X170.0Y-97.5
X172.5Y-75.0
X172.5Y-80.0
X172.5Y-110.0
X175.0Y-82.5
X175.0Y-87.5
X175.0Y-92.5
X175.0Y-97.5
X175.0Y-102.5
T2
X104.1Y-78.193
X104.1Y-80.733
T3
X130.26Y-75.368
X132.8Y-75.368
X135.34Y-75.368
X137.88Y-75.368
X140.42Y-75.368
X142.96Y-75.368
X145.5Y-75.368
X150.66Y-88.418
X153.2Y-88.418
X155.74Y-88.418
X158.28Y-88.418
T4
X105.25Y-108.993
X105.7Y-100.993
X108.55Y-100.193
X111.4Y-100.993
X111.85Y-108.993
M30
