G04 #@! TF.GenerationSoftware,KiCad,Pcbnew,9.0.0*
G04 #@! TF.CreationDate,2025-08-07T23:08:42-07:00*
G04 #@! TF.ProjectId,pocket_radio_v3,706f636b-6574-45f7-9261-64696f5f7633,rev?*
G04 #@! TF.SameCoordinates,Original*
G04 #@! TF.FileFunction,Copper,L4,Bot*
G04 #@! TF.FilePolarity,Positive*
%FSLAX46Y46*%
G04 Gerber Fmt 4.6, Leading zero omitted, Abs format (unit mm)*
G04 Created by KiCad (PCBNEW 9.0.0) date 2025-08-07 23:08:42*
%MOMM*%
%LPD*%
G01*
G04 APERTURE LIST*
G04 Aperture macros list*
%AMRoundRect*
0 Rectangle with rounded corners*
0 $1 Rounding radius*
0 $2 $3 $4 $5 $6 $7 $8 $9 X,Y pos of 4 corners*
0 Add a 4 corners polygon primitive as box body*
4,1,4,$2,$3,$4,$5,$6,$7,$8,$9,$2,$3,0*
0 Add four circle primitives for the rounded corners*
1,1,$1+$1,$2,$3*
1,1,$1+$1,$4,$5*
1,1,$1+$1,$6,$7*
1,1,$1+$1,$8,$9*
0 Add four rect primitives between the rounded corners*
20,1,$1+$1,$2,$3,$4,$5,0*
20,1,$1+$1,$4,$5,$6,$7,0*
20,1,$1+$1,$6,$7,$8,$9,0*
20,1,$1+$1,$8,$9,$2,$3,0*%
G04 Aperture macros list end*
G04 #@! TA.AperFunction,ComponentPad*
%ADD10R,1.700000X1.700000*%
G04 #@! TD*
G04 #@! TA.AperFunction,ComponentPad*
%ADD11O,1.700000X1.700000*%
G04 #@! TD*
G04 #@! TA.AperFunction,ComponentPad*
%ADD12C,2.540000*%
G04 #@! TD*
G04 #@! TA.AperFunction,ComponentPad*
%ADD13C,1.500000*%
G04 #@! TD*
G04 #@! TA.AperFunction,SMDPad,CuDef*
%ADD14R,1.000000X1.800000*%
G04 #@! TD*
G04 #@! TA.AperFunction,SMDPad,CuDef*
%ADD15RoundRect,0.140000X-0.140000X-0.170000X0.140000X-0.170000X0.140000X0.170000X-0.140000X0.170000X0*%
G04 #@! TD*
G04 #@! TA.AperFunction,SMDPad,CuDef*
%ADD16RoundRect,0.140000X0.140000X0.170000X-0.140000X0.170000X-0.140000X-0.170000X0.140000X-0.170000X0*%
G04 #@! TD*
G04 #@! TA.AperFunction,ViaPad*
%ADD17C,0.500000*%
G04 #@! TD*
G04 #@! TA.AperFunction,Conductor*
%ADD18C,0.203200*%
G04 #@! TD*
G04 #@! TA.AperFunction,Conductor*
%ADD19C,1.500000*%
G04 #@! TD*
G04 #@! TA.AperFunction,Conductor*
%ADD20C,0.600000*%
G04 #@! TD*
G04 APERTURE END LIST*
D10*
X145500000Y-75368095D03*
D11*
X142960000Y-75368095D03*
X140420000Y-75368095D03*
X137880000Y-75368095D03*
X135340000Y-75368095D03*
X132800000Y-75368095D03*
X130260000Y-75368095D03*
D10*
X150660000Y-88418095D03*
D11*
X153200000Y-88418095D03*
X155740000Y-88418095D03*
X158280000Y-88418095D03*
D12*
X108550000Y-100193095D03*
X105700000Y-100993095D03*
X111400000Y-100993095D03*
X105250000Y-108993095D03*
X111850000Y-108993095D03*
D13*
X104100000Y-78193095D03*
X104100000Y-80733095D03*
D14*
X111055000Y-76593095D03*
X108555000Y-76593095D03*
D15*
X110245000Y-78243095D03*
X111205000Y-78243095D03*
D16*
X109355000Y-78243095D03*
X108395000Y-78243095D03*
D17*
X172500000Y-80000000D03*
X167500000Y-80000000D03*
X170000000Y-97500000D03*
X160000000Y-100000000D03*
X160000000Y-95000000D03*
X155000000Y-95000000D03*
X155050000Y-105743095D03*
X150000000Y-100000000D03*
X145000000Y-100000000D03*
X140000000Y-100000000D03*
X140000000Y-105000000D03*
X145000000Y-105000000D03*
X150000000Y-105000000D03*
X110925000Y-95000000D03*
X122500000Y-92500000D03*
X127500000Y-92500000D03*
X127500000Y-87500000D03*
X122500000Y-87500000D03*
X112500000Y-75000000D03*
X122500000Y-75000000D03*
X127500000Y-75000000D03*
X167500000Y-75000000D03*
X172500000Y-75000000D03*
X175000000Y-82500000D03*
X175000000Y-87500000D03*
X175000000Y-92500000D03*
X175000000Y-97500000D03*
X175000000Y-102500000D03*
X172500000Y-110000000D03*
X155130993Y-99869007D03*
X155000000Y-110000000D03*
X150000000Y-110000000D03*
X145000000Y-110000000D03*
X140000000Y-110000000D03*
X117500000Y-102500000D03*
X102500000Y-110000000D03*
X102500000Y-105000000D03*
X102500000Y-100000000D03*
X102500000Y-95000000D03*
X161450000Y-74820623D03*
X158475000Y-74820623D03*
X155475000Y-74820623D03*
X152525000Y-74845623D03*
X149525000Y-74845623D03*
X108076000Y-92969095D03*
X107825000Y-81018095D03*
X120500000Y-95018095D03*
X107650000Y-92543095D03*
X121500000Y-94018095D03*
X121500000Y-95018095D03*
X120500000Y-94018095D03*
X128775000Y-97468095D03*
X143900000Y-90618095D03*
X109975000Y-91793095D03*
X110660000Y-79228095D03*
X162000000Y-101493095D03*
X106070000Y-98988095D03*
X129350000Y-108475000D03*
X138700000Y-97943095D03*
X138000000Y-97443095D03*
X106290000Y-75818095D03*
X106275000Y-81718095D03*
X135350000Y-76843095D03*
X129475000Y-97968095D03*
X140425000Y-76643095D03*
X114130000Y-85643095D03*
X130325000Y-108475000D03*
X106980000Y-98988095D03*
X130350000Y-109475000D03*
X108800000Y-80919695D03*
X131350000Y-109475000D03*
X105250000Y-80968095D03*
X128575000Y-93843095D03*
X162000000Y-85468095D03*
X140175000Y-90478095D03*
X143275000Y-90618095D03*
X105250000Y-81718095D03*
X139530269Y-89862826D03*
X162025000Y-108393095D03*
X132800000Y-76843095D03*
X106475000Y-79068095D03*
X131250000Y-101593095D03*
X109330000Y-91793095D03*
X130600000Y-101593095D03*
X114775000Y-85643095D03*
X131350000Y-108475000D03*
X129350000Y-110475000D03*
X146450000Y-89968095D03*
X130350000Y-110475000D03*
X121650000Y-102018095D03*
X110500000Y-74838895D03*
X129350000Y-109475000D03*
X161975000Y-92468095D03*
X131350000Y-110475000D03*
X121650000Y-101393095D03*
X106250000Y-80993095D03*
X108809000Y-81520623D03*
X141725000Y-90618095D03*
X104000000Y-76268095D03*
X134675000Y-95893095D03*
X104800000Y-76268095D03*
X131300000Y-80318095D03*
X134675000Y-94893095D03*
X140800000Y-88143095D03*
X135675000Y-95893095D03*
X142325000Y-90618095D03*
X133250000Y-80318095D03*
X135675000Y-94893095D03*
X138825000Y-87568095D03*
X143825000Y-85468095D03*
X107616889Y-77420623D03*
X111805000Y-78143095D03*
X132350000Y-82843095D03*
X107600000Y-76020623D03*
X129900000Y-81830695D03*
X107600000Y-76720623D03*
X144000000Y-82418095D03*
X161900000Y-107418095D03*
X107630000Y-75138095D03*
X137525000Y-82793095D03*
D18*
X161068095Y-107418095D02*
X161900000Y-107418095D01*
X148250000Y-94600000D02*
X161068095Y-107418095D01*
X144050000Y-82418095D02*
X148250000Y-86618095D01*
X148250000Y-86618095D02*
X148250000Y-94600000D01*
X144000000Y-82418095D02*
X144050000Y-82418095D01*
D19*
X102399000Y-77488517D02*
X103619422Y-76268095D01*
X103619422Y-76268095D02*
X104800000Y-76268095D01*
X126318095Y-98075000D02*
X109572874Y-98075000D01*
X102399000Y-90901126D02*
X102399000Y-77488517D01*
X129500000Y-94893095D02*
X126318095Y-98075000D01*
X109572874Y-98075000D02*
X102399000Y-90901126D01*
X135675000Y-94893095D02*
X129500000Y-94893095D01*
D18*
X115125000Y-81793095D02*
X129862400Y-81793095D01*
X106377528Y-79795623D02*
X113127528Y-79795623D01*
X105800000Y-78036600D02*
X105800000Y-79218095D01*
X107115977Y-76720623D02*
X105800000Y-78036600D01*
X113127528Y-79795623D02*
X115125000Y-81793095D01*
X129862400Y-81793095D02*
X129900000Y-81830695D01*
X107600000Y-76720623D02*
X107115977Y-76720623D01*
X105800000Y-79218095D02*
X106377528Y-79795623D01*
X114704309Y-82843095D02*
X132350000Y-82843095D01*
X112229309Y-80368095D02*
X114704309Y-82843095D01*
X105925000Y-80368095D02*
X112229309Y-80368095D01*
X105152600Y-77757093D02*
X105152600Y-78629097D01*
X105150000Y-79593095D02*
X105925000Y-80368095D01*
X105150000Y-77754493D02*
X105152600Y-77757093D01*
X105150000Y-77749359D02*
X105150000Y-77754493D01*
X106878736Y-76020623D02*
X105150000Y-77749359D01*
X107600000Y-76020623D02*
X106878736Y-76020623D01*
X105150000Y-78631697D02*
X105150000Y-79593095D01*
X105152600Y-78629097D02*
X105150000Y-78631697D01*
X107616889Y-77854984D02*
X108005000Y-78243095D01*
X107616889Y-77420623D02*
X107616889Y-77854984D01*
X108005000Y-78243095D02*
X108395000Y-78243095D01*
D19*
X108102528Y-92995623D02*
X108076000Y-92969095D01*
X117425000Y-95018095D02*
X115402528Y-92995623D01*
X119025000Y-95018095D02*
X117425000Y-95018095D01*
X115402528Y-92995623D02*
X108102528Y-92995623D01*
X120500000Y-95018095D02*
X120500000Y-94018095D01*
X108076000Y-92969095D02*
X107650000Y-92543095D01*
X119500000Y-95018095D02*
X120500000Y-94018095D01*
X120500000Y-94018095D02*
X120500000Y-92118095D01*
X115575000Y-87193095D02*
X112575000Y-87193095D01*
X120500000Y-92118095D02*
X115575000Y-87193095D01*
X112575000Y-87193095D02*
X107609000Y-82227095D01*
X120500000Y-95018095D02*
X119025000Y-95018095D01*
X119025000Y-95018095D02*
X119500000Y-95018095D01*
X107609000Y-82227095D02*
X107609000Y-81420695D01*
D18*
X109355000Y-78653095D02*
X109355000Y-78243095D01*
X110660000Y-79228095D02*
X110660000Y-78638095D01*
X110265000Y-78243095D02*
X110245000Y-78243095D01*
X110660000Y-78638095D02*
X110265000Y-78243095D01*
X109940000Y-79238095D02*
X109355000Y-78653095D01*
X110650000Y-79238095D02*
X109940000Y-79238095D01*
X110660000Y-79228095D02*
X110650000Y-79238095D01*
D20*
X141250000Y-87693095D02*
X142525000Y-87693095D01*
X144675000Y-86518095D02*
X144675000Y-84368095D01*
D19*
X134675000Y-94893095D02*
X135675000Y-93893095D01*
X135675000Y-82993095D02*
X133352600Y-80670695D01*
D20*
X140800000Y-88143095D02*
X141250000Y-87693095D01*
X144675000Y-84368095D02*
X142875000Y-82568095D01*
X142525000Y-87693095D02*
X142525000Y-87865495D01*
X142875000Y-77818095D02*
X145325000Y-75368095D01*
X145325000Y-75368095D02*
X145500000Y-75368095D01*
X142525000Y-87865495D02*
X141725000Y-88665495D01*
X142525000Y-87693095D02*
X143500000Y-87693095D01*
D19*
X135675000Y-93893095D02*
X135675000Y-93793095D01*
X136750000Y-94893095D02*
X138050000Y-94893095D01*
X142074000Y-90869095D02*
X142074000Y-90618095D01*
X138050000Y-94893095D02*
X142074000Y-90869095D01*
X135675000Y-93793095D02*
X135675000Y-82993095D01*
X135675000Y-93793095D02*
X136750000Y-94868095D01*
X141725000Y-88665495D02*
X141202600Y-88143095D01*
D20*
X143500000Y-87693095D02*
X144675000Y-86518095D01*
D19*
X136750000Y-94868095D02*
X136750000Y-94893095D01*
X135675000Y-94893095D02*
X135675000Y-93793095D01*
D20*
X142875000Y-82568095D02*
X142875000Y-77818095D01*
D19*
X133352600Y-80670695D02*
X131350000Y-80670695D01*
X135675000Y-94893095D02*
X136750000Y-94893095D01*
X141725000Y-90618095D02*
X141725000Y-88665495D01*
D18*
X138825000Y-87568095D02*
X138225000Y-86968095D01*
X131775000Y-78643095D02*
X130260000Y-77128095D01*
X143800000Y-85443095D02*
X143825000Y-85468095D01*
X138225000Y-81918095D02*
X134950000Y-78643095D01*
X130260000Y-77128095D02*
X130260000Y-75368095D01*
X138900000Y-87493095D02*
X139950000Y-87493095D01*
X138825000Y-87568095D02*
X138900000Y-87493095D01*
X139950000Y-87493095D02*
X142000000Y-85443095D01*
X138225000Y-86968095D02*
X138225000Y-81918095D01*
X142000000Y-85443095D02*
X143800000Y-85443095D01*
X134950000Y-78643095D02*
X131775000Y-78643095D01*
X108395000Y-76753095D02*
X108555000Y-76593095D01*
X108395000Y-78243095D02*
X108395000Y-76753095D01*
X111205000Y-78243095D02*
X111205000Y-76743095D01*
X111205000Y-76743095D02*
X111055000Y-76593095D01*
X111205000Y-78243095D02*
X111300000Y-78148095D01*
X111300000Y-78148095D02*
X111800000Y-78148095D01*
X111800000Y-78148095D02*
X111805000Y-78143095D01*
X137525000Y-82793095D02*
X134350000Y-79618095D01*
X107882400Y-75390495D02*
X107630000Y-75138095D01*
X109357600Y-75390495D02*
X107882400Y-75390495D01*
X110252400Y-75390495D02*
X110252400Y-75393095D01*
X111857600Y-75393095D02*
X111857600Y-75390495D01*
X116175000Y-79618095D02*
X111950000Y-75393095D01*
X109357600Y-75393095D02*
X109357600Y-75390495D01*
X134350000Y-79618095D02*
X116175000Y-79618095D01*
X111857600Y-75390495D02*
X110252400Y-75390495D01*
X110252400Y-75393095D02*
X109357600Y-75393095D01*
X111950000Y-75393095D02*
X111857600Y-75393095D01*
G04 #@! TA.AperFunction,Conductor*
G36*
X123018039Y-93387780D02*
G01*
X123063794Y-93440584D01*
X123075000Y-93492095D01*
X123075000Y-95619095D01*
X123055315Y-95686134D01*
X123002511Y-95731889D01*
X122951000Y-95743095D01*
X119874000Y-95743095D01*
X119806961Y-95723410D01*
X119761206Y-95670606D01*
X119750000Y-95619095D01*
X119750000Y-93492095D01*
X119769685Y-93425056D01*
X119822489Y-93379301D01*
X119874000Y-93368095D01*
X122951000Y-93368095D01*
X123018039Y-93387780D01*
G37*
G04 #@! TD.AperFunction*
G04 #@! TA.AperFunction,Conductor*
G36*
X136368039Y-94162780D02*
G01*
X136413794Y-94215584D01*
X136425000Y-94267095D01*
X136425000Y-96594095D01*
X136405315Y-96661134D01*
X136352511Y-96706889D01*
X136301000Y-96718095D01*
X134074000Y-96718095D01*
X134006961Y-96698410D01*
X133961206Y-96645606D01*
X133950000Y-96594095D01*
X133950000Y-94267095D01*
X133969685Y-94200056D01*
X134022489Y-94154301D01*
X134074000Y-94143095D01*
X136301000Y-94143095D01*
X136368039Y-94162780D01*
G37*
G04 #@! TD.AperFunction*
M02*
