G04 #@! TF.GenerationSoftware,KiCad,Pcbnew,9.0.0*
G04 #@! TF.CreationDate,2025-08-07T23:08:42-07:00*
G04 #@! TF.ProjectId,pocket_radio_v3,706f636b-6574-45f7-9261-64696f5f7633,rev?*
G04 #@! TF.SameCoordinates,Original*
G04 #@! TF.FileFunction,Copper,L2,Inr*
G04 #@! TF.FilePolarity,Positive*
%FSLAX46Y46*%
G04 Gerber Fmt 4.6, Leading zero omitted, Abs format (unit mm)*
G04 Created by KiCad (PCBNEW 9.0.0) date 2025-08-07 23:08:42*
%MOMM*%
%LPD*%
G01*
G04 APERTURE LIST*
G04 #@! TA.AperFunction,ComponentPad*
%ADD10R,1.700000X1.700000*%
G04 #@! TD*
G04 #@! TA.AperFunction,ComponentPad*
%ADD11O,1.700000X1.700000*%
G04 #@! TD*
G04 #@! TA.AperFunction,ComponentPad*
%ADD12C,2.540000*%
G04 #@! TD*
G04 #@! TA.AperFunction,ComponentPad*
%ADD13C,1.500000*%
G04 #@! TD*
G04 #@! TA.AperFunction,ViaPad*
%ADD14C,0.500000*%
G04 #@! TD*
G04 APERTURE END LIST*
D10*
X145500000Y-75368095D03*
D11*
X142960000Y-75368095D03*
X140420000Y-75368095D03*
X137880000Y-75368095D03*
X135340000Y-75368095D03*
X132800000Y-75368095D03*
X130260000Y-75368095D03*
D10*
X150660000Y-88418095D03*
D11*
X153200000Y-88418095D03*
X155740000Y-88418095D03*
X158280000Y-88418095D03*
D12*
X108550000Y-100193095D03*
X105700000Y-100993095D03*
X111400000Y-100993095D03*
X105250000Y-108993095D03*
X111850000Y-108993095D03*
D13*
X104100000Y-78193095D03*
X104100000Y-80733095D03*
D14*
X172500000Y-80000000D03*
X167500000Y-80000000D03*
X170000000Y-97500000D03*
X160000000Y-100000000D03*
X160000000Y-95000000D03*
X155000000Y-95000000D03*
X155050000Y-105743095D03*
X150000000Y-100000000D03*
X145000000Y-100000000D03*
X140000000Y-100000000D03*
X140000000Y-105000000D03*
X145000000Y-105000000D03*
X150000000Y-105000000D03*
X110925000Y-95000000D03*
X122500000Y-92500000D03*
X127500000Y-92500000D03*
X127500000Y-87500000D03*
X122500000Y-87500000D03*
X112500000Y-75000000D03*
X122500000Y-75000000D03*
X127500000Y-75000000D03*
X167500000Y-75000000D03*
X172500000Y-75000000D03*
X175000000Y-82500000D03*
X175000000Y-87500000D03*
X175000000Y-92500000D03*
X175000000Y-97500000D03*
X175000000Y-102500000D03*
X172500000Y-110000000D03*
X155130993Y-99869007D03*
X155000000Y-110000000D03*
X150000000Y-110000000D03*
X145000000Y-110000000D03*
X140000000Y-110000000D03*
X117500000Y-102500000D03*
X102500000Y-110000000D03*
X102500000Y-105000000D03*
X102500000Y-100000000D03*
X102500000Y-95000000D03*
X161450000Y-74820623D03*
X158475000Y-74820623D03*
X155475000Y-74820623D03*
X152525000Y-74845623D03*
X149525000Y-74845623D03*
X108076000Y-92969095D03*
X107825000Y-81018095D03*
X120500000Y-95018095D03*
X107650000Y-92543095D03*
X121500000Y-94018095D03*
X121500000Y-95018095D03*
X120500000Y-94018095D03*
X128775000Y-97468095D03*
X143900000Y-90618095D03*
X109975000Y-91793095D03*
X110660000Y-79228095D03*
X162000000Y-101493095D03*
X106070000Y-98988095D03*
X129350000Y-108475000D03*
X138700000Y-97943095D03*
X138000000Y-97443095D03*
X106290000Y-75818095D03*
X106275000Y-81718095D03*
X135350000Y-76843095D03*
X129475000Y-97968095D03*
X140425000Y-76643095D03*
X114130000Y-85643095D03*
X130325000Y-108475000D03*
X106980000Y-98988095D03*
X130350000Y-109475000D03*
X108800000Y-80919695D03*
X131350000Y-109475000D03*
X105250000Y-80968095D03*
X128575000Y-93843095D03*
X162000000Y-85468095D03*
X140175000Y-90478095D03*
X143275000Y-90618095D03*
X105250000Y-81718095D03*
X139530269Y-89862826D03*
X162025000Y-108393095D03*
X132800000Y-76843095D03*
X106475000Y-79068095D03*
X131250000Y-101593095D03*
X109330000Y-91793095D03*
X130600000Y-101593095D03*
X114775000Y-85643095D03*
X131350000Y-108475000D03*
X129350000Y-110475000D03*
X146450000Y-89968095D03*
X130350000Y-110475000D03*
X121650000Y-102018095D03*
X110500000Y-74838895D03*
X129350000Y-109475000D03*
X161975000Y-92468095D03*
X131350000Y-110475000D03*
X121650000Y-101393095D03*
X106250000Y-80993095D03*
X108809000Y-81520623D03*
X141725000Y-90618095D03*
X104000000Y-76268095D03*
X134675000Y-95893095D03*
X104800000Y-76268095D03*
X131300000Y-80318095D03*
X134675000Y-94893095D03*
X140800000Y-88143095D03*
X135675000Y-95893095D03*
X142325000Y-90618095D03*
X133250000Y-80318095D03*
X135675000Y-94893095D03*
X138825000Y-87568095D03*
X143825000Y-85468095D03*
X107616889Y-77420623D03*
X111805000Y-78143095D03*
X132350000Y-82843095D03*
X107600000Y-76020623D03*
X129900000Y-81830695D03*
X107600000Y-76720623D03*
X144000000Y-82418095D03*
X161900000Y-107418095D03*
X107630000Y-75138095D03*
X137525000Y-82793095D03*
G04 #@! TA.AperFunction,Conductor*
G36*
X176443039Y-73487780D02*
G01*
X176488794Y-73540584D01*
X176500000Y-73592095D01*
X176500000Y-75551729D01*
X176480315Y-75618768D01*
X176427511Y-75664523D01*
X176358353Y-75674467D01*
X176294797Y-75645442D01*
X176288319Y-75639410D01*
X176222743Y-75573834D01*
X176222736Y-75573828D01*
X176030293Y-75426162D01*
X176030292Y-75426161D01*
X176030289Y-75426159D01*
X175820212Y-75304871D01*
X175763751Y-75281484D01*
X175596104Y-75212042D01*
X175361785Y-75149256D01*
X175121289Y-75117595D01*
X175121288Y-75117595D01*
X174878712Y-75117595D01*
X174878711Y-75117595D01*
X174638214Y-75149256D01*
X174403895Y-75212042D01*
X174179794Y-75304868D01*
X174179785Y-75304872D01*
X173969706Y-75426162D01*
X173777263Y-75573828D01*
X173777256Y-75573834D01*
X173605739Y-75745351D01*
X173605733Y-75745358D01*
X173458067Y-75937801D01*
X173336777Y-76147880D01*
X173336773Y-76147889D01*
X173243947Y-76371990D01*
X173181161Y-76606309D01*
X173149500Y-76846806D01*
X173149500Y-77089383D01*
X173181161Y-77329880D01*
X173243947Y-77564199D01*
X173317842Y-77742597D01*
X173336776Y-77788307D01*
X173458064Y-77998384D01*
X173458066Y-77998387D01*
X173458067Y-77998388D01*
X173605733Y-78190831D01*
X173605739Y-78190838D01*
X173777256Y-78362355D01*
X173777263Y-78362361D01*
X173890321Y-78449113D01*
X173969711Y-78510031D01*
X174179788Y-78631319D01*
X174403900Y-78724149D01*
X174638211Y-78786933D01*
X174818586Y-78810679D01*
X174878711Y-78818595D01*
X174878712Y-78818595D01*
X175121289Y-78818595D01*
X175169388Y-78812262D01*
X175361789Y-78786933D01*
X175596100Y-78724149D01*
X175820212Y-78631319D01*
X176030289Y-78510031D01*
X176222738Y-78362360D01*
X176248817Y-78336281D01*
X176288319Y-78296780D01*
X176349642Y-78263295D01*
X176419334Y-78268279D01*
X176475267Y-78310151D01*
X176499684Y-78375615D01*
X176500000Y-78384461D01*
X176500000Y-106551729D01*
X176480315Y-106618768D01*
X176427511Y-106664523D01*
X176358353Y-106674467D01*
X176294797Y-106645442D01*
X176288319Y-106639410D01*
X176222743Y-106573834D01*
X176222736Y-106573828D01*
X176030293Y-106426162D01*
X176030292Y-106426161D01*
X176030289Y-106426159D01*
X175820212Y-106304871D01*
X175820205Y-106304868D01*
X175596104Y-106212042D01*
X175361785Y-106149256D01*
X175121289Y-106117595D01*
X175121288Y-106117595D01*
X174878712Y-106117595D01*
X174878711Y-106117595D01*
X174638214Y-106149256D01*
X174403895Y-106212042D01*
X174179794Y-106304868D01*
X174179785Y-106304872D01*
X173969706Y-106426162D01*
X173777263Y-106573828D01*
X173777256Y-106573834D01*
X173605739Y-106745351D01*
X173605733Y-106745358D01*
X173458067Y-106937801D01*
X173336777Y-107147880D01*
X173336773Y-107147889D01*
X173243947Y-107371990D01*
X173181161Y-107606309D01*
X173149500Y-107846806D01*
X173149500Y-108089383D01*
X173181161Y-108329880D01*
X173243947Y-108564199D01*
X173336773Y-108788300D01*
X173336776Y-108788307D01*
X173458064Y-108998384D01*
X173458066Y-108998387D01*
X173458067Y-108998388D01*
X173605733Y-109190831D01*
X173605739Y-109190838D01*
X173777256Y-109362355D01*
X173777263Y-109362361D01*
X173890321Y-109449113D01*
X173969711Y-109510031D01*
X174179788Y-109631319D01*
X174403900Y-109724149D01*
X174638211Y-109786933D01*
X174818586Y-109810679D01*
X174878711Y-109818595D01*
X174878712Y-109818595D01*
X175121289Y-109818595D01*
X175169388Y-109812262D01*
X175361789Y-109786933D01*
X175596100Y-109724149D01*
X175820212Y-109631319D01*
X176030289Y-109510031D01*
X176222738Y-109362360D01*
X176235952Y-109349146D01*
X176288319Y-109296780D01*
X176349642Y-109263295D01*
X176419334Y-109268279D01*
X176475267Y-109310151D01*
X176499684Y-109375615D01*
X176500000Y-109384461D01*
X176500000Y-111344095D01*
X176480315Y-111411134D01*
X176427511Y-111456889D01*
X176376000Y-111468095D01*
X109030441Y-111468095D01*
X108963402Y-111448410D01*
X108917647Y-111395606D01*
X108907703Y-111326448D01*
X108936728Y-111262892D01*
X108961551Y-111240993D01*
X109003260Y-111213123D01*
X109092162Y-111153721D01*
X109210626Y-111035257D01*
X109303703Y-110895958D01*
X109367816Y-110741177D01*
X109400500Y-110576862D01*
X109400500Y-110409328D01*
X109367816Y-110245013D01*
X109303703Y-110090232D01*
X109272537Y-110043589D01*
X109210626Y-109950932D01*
X109092162Y-109832468D01*
X108952860Y-109739390D01*
X108798082Y-109675279D01*
X108798074Y-109675277D01*
X108633771Y-109642595D01*
X108633767Y-109642595D01*
X108466233Y-109642595D01*
X108466228Y-109642595D01*
X108301925Y-109675277D01*
X108301917Y-109675279D01*
X108147139Y-109739390D01*
X108007837Y-109832468D01*
X107889373Y-109950932D01*
X107796295Y-110090234D01*
X107732184Y-110245012D01*
X107732182Y-110245020D01*
X107699500Y-110409323D01*
X107699500Y-110576866D01*
X107732182Y-110741169D01*
X107732184Y-110741177D01*
X107796295Y-110895955D01*
X107889373Y-111035257D01*
X108007834Y-111153718D01*
X108007842Y-111153724D01*
X108138449Y-111240993D01*
X108183255Y-111294605D01*
X108191962Y-111363930D01*
X108161808Y-111426957D01*
X108102365Y-111463677D01*
X108069559Y-111468095D01*
X101124000Y-111468095D01*
X101056961Y-111448410D01*
X101011206Y-111395606D01*
X101000000Y-111344095D01*
X101000000Y-108873423D01*
X103729500Y-108873423D01*
X103729500Y-109112766D01*
X103766939Y-109349146D01*
X103840898Y-109576769D01*
X103949554Y-109790014D01*
X104090221Y-109983627D01*
X104090225Y-109983632D01*
X104259462Y-110152869D01*
X104259467Y-110152873D01*
X104428347Y-110275571D01*
X104453084Y-110293543D01*
X104588961Y-110362776D01*
X104666325Y-110402196D01*
X104666327Y-110402196D01*
X104666330Y-110402198D01*
X104893949Y-110476156D01*
X105015735Y-110495444D01*
X105130329Y-110513595D01*
X105130334Y-110513595D01*
X105369671Y-110513595D01*
X105474135Y-110497048D01*
X105606051Y-110476156D01*
X105833670Y-110402198D01*
X106046916Y-110293543D01*
X106240539Y-110152868D01*
X106409773Y-109983634D01*
X106550448Y-109790011D01*
X106659103Y-109576765D01*
X106733061Y-109349146D01*
X106758135Y-109190831D01*
X106770500Y-109112766D01*
X106770500Y-108873423D01*
X110329500Y-108873423D01*
X110329500Y-109112766D01*
X110366939Y-109349146D01*
X110440898Y-109576769D01*
X110549554Y-109790014D01*
X110690221Y-109983627D01*
X110690225Y-109983632D01*
X110859462Y-110152869D01*
X110859467Y-110152873D01*
X111028347Y-110275571D01*
X111053084Y-110293543D01*
X111188961Y-110362776D01*
X111266325Y-110402196D01*
X111266327Y-110402196D01*
X111266330Y-110402198D01*
X111493949Y-110476156D01*
X111615735Y-110495444D01*
X111730329Y-110513595D01*
X111730334Y-110513595D01*
X111969671Y-110513595D01*
X112074135Y-110497048D01*
X112206051Y-110476156D01*
X112433670Y-110402198D01*
X112646916Y-110293543D01*
X112840539Y-110152868D01*
X113009773Y-109983634D01*
X113150448Y-109790011D01*
X113259103Y-109576765D01*
X113333061Y-109349146D01*
X113358135Y-109190831D01*
X113370500Y-109112766D01*
X113370500Y-108873423D01*
X113350644Y-108748065D01*
X113333061Y-108637044D01*
X113259103Y-108409425D01*
X113259101Y-108409422D01*
X113259101Y-108409420D01*
X113218573Y-108329880D01*
X113150448Y-108196179D01*
X113132476Y-108171442D01*
X113009778Y-108002562D01*
X113009774Y-108002557D01*
X112854023Y-107846806D01*
X115149500Y-107846806D01*
X115149500Y-108089383D01*
X115181161Y-108329880D01*
X115243947Y-108564199D01*
X115336773Y-108788300D01*
X115336776Y-108788307D01*
X115458064Y-108998384D01*
X115458066Y-108998387D01*
X115458067Y-108998388D01*
X115605733Y-109190831D01*
X115605739Y-109190838D01*
X115777256Y-109362355D01*
X115777263Y-109362361D01*
X115890321Y-109449113D01*
X115969711Y-109510031D01*
X116179788Y-109631319D01*
X116403900Y-109724149D01*
X116638211Y-109786933D01*
X116818586Y-109810679D01*
X116878711Y-109818595D01*
X116878712Y-109818595D01*
X117121289Y-109818595D01*
X117169388Y-109812262D01*
X117361789Y-109786933D01*
X117596100Y-109724149D01*
X117820212Y-109631319D01*
X118030289Y-109510031D01*
X118222738Y-109362360D01*
X118394265Y-109190833D01*
X118541936Y-108998384D01*
X118663224Y-108788307D01*
X118756054Y-108564195D01*
X118818838Y-108329884D01*
X118850500Y-108089383D01*
X118850500Y-107846807D01*
X118848724Y-107833320D01*
X118818838Y-107606309D01*
X118818838Y-107606306D01*
X118756054Y-107371995D01*
X118747856Y-107352203D01*
X161399500Y-107352203D01*
X161399500Y-107483986D01*
X161433608Y-107611282D01*
X161466554Y-107668345D01*
X161499500Y-107725409D01*
X161592686Y-107818595D01*
X161706814Y-107884487D01*
X161834108Y-107918595D01*
X161834110Y-107918595D01*
X161965890Y-107918595D01*
X161965892Y-107918595D01*
X162093186Y-107884487D01*
X162207314Y-107818595D01*
X162300500Y-107725409D01*
X162366392Y-107611281D01*
X162400500Y-107483987D01*
X162400500Y-107352203D01*
X162366392Y-107224909D01*
X162300500Y-107110781D01*
X162207314Y-107017595D01*
X162150250Y-106984649D01*
X162093187Y-106951703D01*
X162029539Y-106934649D01*
X161965892Y-106917595D01*
X161834108Y-106917595D01*
X161706812Y-106951703D01*
X161592686Y-107017595D01*
X161592683Y-107017597D01*
X161499502Y-107110778D01*
X161499500Y-107110781D01*
X161433608Y-107224907D01*
X161399500Y-107352203D01*
X118747856Y-107352203D01*
X118663224Y-107147883D01*
X118541936Y-106937806D01*
X118394265Y-106745357D01*
X118394260Y-106745351D01*
X118222743Y-106573834D01*
X118222736Y-106573828D01*
X118030293Y-106426162D01*
X118030292Y-106426161D01*
X118030289Y-106426159D01*
X117820212Y-106304871D01*
X117820205Y-106304868D01*
X117596104Y-106212042D01*
X117361785Y-106149256D01*
X117121289Y-106117595D01*
X117121288Y-106117595D01*
X116878712Y-106117595D01*
X116878711Y-106117595D01*
X116638214Y-106149256D01*
X116403895Y-106212042D01*
X116179794Y-106304868D01*
X116179785Y-106304872D01*
X115969706Y-106426162D01*
X115777263Y-106573828D01*
X115777256Y-106573834D01*
X115605739Y-106745351D01*
X115605733Y-106745358D01*
X115458067Y-106937801D01*
X115336777Y-107147880D01*
X115336773Y-107147889D01*
X115243947Y-107371990D01*
X115181161Y-107606309D01*
X115149500Y-107846806D01*
X112854023Y-107846806D01*
X112840537Y-107833320D01*
X112840532Y-107833316D01*
X112646919Y-107692649D01*
X112646918Y-107692648D01*
X112646916Y-107692647D01*
X112580324Y-107658716D01*
X112433674Y-107583993D01*
X112206051Y-107510034D01*
X111969671Y-107472595D01*
X111969666Y-107472595D01*
X111730334Y-107472595D01*
X111730329Y-107472595D01*
X111493948Y-107510034D01*
X111266325Y-107583993D01*
X111053080Y-107692649D01*
X110859467Y-107833316D01*
X110859462Y-107833320D01*
X110690225Y-108002557D01*
X110690221Y-108002562D01*
X110549554Y-108196175D01*
X110440898Y-108409420D01*
X110366939Y-108637043D01*
X110329500Y-108873423D01*
X106770500Y-108873423D01*
X106750644Y-108748065D01*
X106733061Y-108637044D01*
X106659103Y-108409425D01*
X106659101Y-108409422D01*
X106659101Y-108409420D01*
X106618573Y-108329880D01*
X106550448Y-108196179D01*
X106532476Y-108171442D01*
X106409778Y-108002562D01*
X106409774Y-108002557D01*
X106240537Y-107833320D01*
X106240532Y-107833316D01*
X106046919Y-107692649D01*
X106046918Y-107692648D01*
X106046916Y-107692647D01*
X105980324Y-107658716D01*
X105833674Y-107583993D01*
X105606051Y-107510034D01*
X105369671Y-107472595D01*
X105369666Y-107472595D01*
X105130334Y-107472595D01*
X105130329Y-107472595D01*
X104893948Y-107510034D01*
X104666325Y-107583993D01*
X104453080Y-107692649D01*
X104259467Y-107833316D01*
X104259462Y-107833320D01*
X104090225Y-108002557D01*
X104090221Y-108002562D01*
X103949554Y-108196175D01*
X103840898Y-108409420D01*
X103766939Y-108637043D01*
X103729500Y-108873423D01*
X101000000Y-108873423D01*
X101000000Y-103409323D01*
X107699500Y-103409323D01*
X107699500Y-103576866D01*
X107732182Y-103741169D01*
X107732184Y-103741177D01*
X107796295Y-103895955D01*
X107889373Y-104035257D01*
X108007837Y-104153721D01*
X108100494Y-104215632D01*
X108147137Y-104246798D01*
X108301918Y-104310911D01*
X108466228Y-104343594D01*
X108466232Y-104343595D01*
X108466233Y-104343595D01*
X108633768Y-104343595D01*
X108633769Y-104343594D01*
X108798082Y-104310911D01*
X108952863Y-104246798D01*
X109092162Y-104153721D01*
X109210626Y-104035257D01*
X109303703Y-103895958D01*
X109367816Y-103741177D01*
X109400500Y-103576862D01*
X109400500Y-103409328D01*
X109367816Y-103245013D01*
X109303703Y-103090232D01*
X109272537Y-103043589D01*
X109210626Y-102950932D01*
X109092162Y-102832468D01*
X108952860Y-102739390D01*
X108798082Y-102675279D01*
X108798074Y-102675277D01*
X108633771Y-102642595D01*
X108633767Y-102642595D01*
X108466233Y-102642595D01*
X108466228Y-102642595D01*
X108301925Y-102675277D01*
X108301917Y-102675279D01*
X108147139Y-102739390D01*
X108007837Y-102832468D01*
X107889373Y-102950932D01*
X107796295Y-103090234D01*
X107732184Y-103245012D01*
X107732182Y-103245020D01*
X107699500Y-103409323D01*
X101000000Y-103409323D01*
X101000000Y-100873423D01*
X109879500Y-100873423D01*
X109879500Y-101112766D01*
X109916939Y-101349146D01*
X109990898Y-101576769D01*
X110099554Y-101790014D01*
X110240221Y-101983627D01*
X110240225Y-101983632D01*
X110409462Y-102152869D01*
X110409467Y-102152873D01*
X110578347Y-102275571D01*
X110603084Y-102293543D01*
X110738961Y-102362776D01*
X110816325Y-102402196D01*
X110816327Y-102402196D01*
X110816330Y-102402198D01*
X111043949Y-102476156D01*
X111165735Y-102495444D01*
X111280329Y-102513595D01*
X111280334Y-102513595D01*
X111519671Y-102513595D01*
X111624135Y-102497048D01*
X111756051Y-102476156D01*
X111983670Y-102402198D01*
X112196916Y-102293543D01*
X112390539Y-102152868D01*
X112559773Y-101983634D01*
X112700448Y-101790011D01*
X112809103Y-101576765D01*
X112883061Y-101349146D01*
X112903953Y-101217230D01*
X112920500Y-101112766D01*
X112920500Y-100873423D01*
X112900644Y-100748065D01*
X112883061Y-100637044D01*
X112809103Y-100409425D01*
X112809101Y-100409422D01*
X112809101Y-100409420D01*
X112769681Y-100332056D01*
X112700448Y-100196179D01*
X112682476Y-100171442D01*
X112559778Y-100002562D01*
X112559774Y-100002557D01*
X112390537Y-99833320D01*
X112390532Y-99833316D01*
X112196919Y-99692649D01*
X112196918Y-99692648D01*
X112196916Y-99692647D01*
X112130324Y-99658716D01*
X111983674Y-99583993D01*
X111756051Y-99510034D01*
X111519671Y-99472595D01*
X111519666Y-99472595D01*
X111280334Y-99472595D01*
X111280329Y-99472595D01*
X111043948Y-99510034D01*
X110816325Y-99583993D01*
X110603080Y-99692649D01*
X110409467Y-99833316D01*
X110409462Y-99833320D01*
X110240225Y-100002557D01*
X110240221Y-100002562D01*
X110099554Y-100196175D01*
X109990898Y-100409420D01*
X109916939Y-100637043D01*
X109879500Y-100873423D01*
X101000000Y-100873423D01*
X101000000Y-93952203D01*
X119999500Y-93952203D01*
X119999500Y-94083986D01*
X120033608Y-94211282D01*
X120066554Y-94268345D01*
X120099500Y-94325409D01*
X120099502Y-94325411D01*
X120192687Y-94418596D01*
X120194158Y-94419725D01*
X120195083Y-94420992D01*
X120198433Y-94424342D01*
X120197910Y-94424864D01*
X120235356Y-94476155D01*
X120239506Y-94545902D01*
X120205289Y-94606820D01*
X120194158Y-94616465D01*
X120192687Y-94617593D01*
X120099502Y-94710778D01*
X120099500Y-94710781D01*
X120033608Y-94824907D01*
X119999500Y-94952203D01*
X119999500Y-95083986D01*
X120033608Y-95211282D01*
X120066554Y-95268345D01*
X120099500Y-95325409D01*
X120192686Y-95418595D01*
X120291521Y-95475658D01*
X120302194Y-95481820D01*
X120306814Y-95484487D01*
X120434108Y-95518595D01*
X120434110Y-95518595D01*
X120565890Y-95518595D01*
X120565892Y-95518595D01*
X120693186Y-95484487D01*
X120807314Y-95418595D01*
X120900500Y-95325409D01*
X120900504Y-95325401D01*
X120901625Y-95323942D01*
X120902892Y-95323016D01*
X120906247Y-95319662D01*
X120906770Y-95320185D01*
X120958053Y-95282740D01*
X121027799Y-95278586D01*
X121088719Y-95312799D01*
X121098375Y-95323942D01*
X121099498Y-95325406D01*
X121099500Y-95325409D01*
X121192686Y-95418595D01*
X121291521Y-95475658D01*
X121302194Y-95481820D01*
X121306814Y-95484487D01*
X121434108Y-95518595D01*
X121434110Y-95518595D01*
X121565890Y-95518595D01*
X121565892Y-95518595D01*
X121693186Y-95484487D01*
X121807314Y-95418595D01*
X121900500Y-95325409D01*
X121966392Y-95211281D01*
X122000500Y-95083987D01*
X122000500Y-94952203D01*
X121967007Y-94827203D01*
X134174500Y-94827203D01*
X134174500Y-94958986D01*
X134208608Y-95086282D01*
X134241554Y-95143345D01*
X134274500Y-95200409D01*
X134274502Y-95200411D01*
X134367687Y-95293596D01*
X134369158Y-95294725D01*
X134370083Y-95295992D01*
X134373433Y-95299342D01*
X134372910Y-95299864D01*
X134410356Y-95351155D01*
X134414506Y-95420902D01*
X134380289Y-95481820D01*
X134369158Y-95491465D01*
X134367687Y-95492593D01*
X134274502Y-95585778D01*
X134274500Y-95585781D01*
X134208608Y-95699907D01*
X134174500Y-95827203D01*
X134174500Y-95958986D01*
X134208608Y-96086282D01*
X134241554Y-96143345D01*
X134274500Y-96200409D01*
X134367686Y-96293595D01*
X134481814Y-96359487D01*
X134609108Y-96393595D01*
X134609110Y-96393595D01*
X134740890Y-96393595D01*
X134740892Y-96393595D01*
X134868186Y-96359487D01*
X134982314Y-96293595D01*
X135075500Y-96200409D01*
X135075504Y-96200401D01*
X135076625Y-96198942D01*
X135077892Y-96198016D01*
X135081247Y-96194662D01*
X135081770Y-96195185D01*
X135133053Y-96157740D01*
X135202799Y-96153586D01*
X135263719Y-96187799D01*
X135273375Y-96198942D01*
X135274498Y-96200406D01*
X135274500Y-96200409D01*
X135367686Y-96293595D01*
X135481814Y-96359487D01*
X135609108Y-96393595D01*
X135609110Y-96393595D01*
X135740890Y-96393595D01*
X135740892Y-96393595D01*
X135868186Y-96359487D01*
X135982314Y-96293595D01*
X136075500Y-96200409D01*
X136141392Y-96086281D01*
X136175500Y-95958987D01*
X136175500Y-95827203D01*
X136141392Y-95699909D01*
X136075500Y-95585781D01*
X135982314Y-95492595D01*
X135982311Y-95492593D01*
X135980847Y-95491470D01*
X135979921Y-95490202D01*
X135976567Y-95486848D01*
X135977090Y-95486324D01*
X135939645Y-95435042D01*
X135935491Y-95365296D01*
X135969704Y-95304376D01*
X135980847Y-95294720D01*
X135982306Y-95293599D01*
X135982314Y-95293595D01*
X136075500Y-95200409D01*
X136141392Y-95086281D01*
X136175500Y-94958987D01*
X136175500Y-94827203D01*
X136141392Y-94699909D01*
X136075500Y-94585781D01*
X135982314Y-94492595D01*
X135925250Y-94459649D01*
X135868187Y-94426703D01*
X135804539Y-94409649D01*
X135740892Y-94392595D01*
X135609108Y-94392595D01*
X135481812Y-94426703D01*
X135367686Y-94492595D01*
X135367683Y-94492597D01*
X135274498Y-94585782D01*
X135273370Y-94587253D01*
X135272102Y-94588178D01*
X135268753Y-94591528D01*
X135268230Y-94591005D01*
X135216940Y-94628451D01*
X135147193Y-94632601D01*
X135086275Y-94598384D01*
X135076630Y-94587253D01*
X135075501Y-94585782D01*
X134982316Y-94492597D01*
X134982314Y-94492595D01*
X134925250Y-94459649D01*
X134868187Y-94426703D01*
X134804539Y-94409649D01*
X134740892Y-94392595D01*
X134609108Y-94392595D01*
X134481812Y-94426703D01*
X134367686Y-94492595D01*
X134367683Y-94492597D01*
X134274502Y-94585778D01*
X134274500Y-94585781D01*
X134208608Y-94699907D01*
X134174500Y-94827203D01*
X121967007Y-94827203D01*
X121966392Y-94824909D01*
X121900500Y-94710781D01*
X121807314Y-94617595D01*
X121807311Y-94617593D01*
X121805847Y-94616470D01*
X121804921Y-94615202D01*
X121801567Y-94611848D01*
X121802090Y-94611324D01*
X121764645Y-94560042D01*
X121760491Y-94490296D01*
X121794704Y-94429376D01*
X121805847Y-94419720D01*
X121807306Y-94418599D01*
X121807314Y-94418595D01*
X121900500Y-94325409D01*
X121966392Y-94211281D01*
X122000500Y-94083987D01*
X122000500Y-93952203D01*
X121966392Y-93824909D01*
X121900500Y-93710781D01*
X121807314Y-93617595D01*
X121750250Y-93584649D01*
X121693187Y-93551703D01*
X121629539Y-93534649D01*
X121565892Y-93517595D01*
X121434108Y-93517595D01*
X121306812Y-93551703D01*
X121192686Y-93617595D01*
X121192683Y-93617597D01*
X121099498Y-93710782D01*
X121098370Y-93712253D01*
X121097102Y-93713178D01*
X121093753Y-93716528D01*
X121093230Y-93716005D01*
X121041940Y-93753451D01*
X120972193Y-93757601D01*
X120911275Y-93723384D01*
X120901630Y-93712253D01*
X120900501Y-93710782D01*
X120807316Y-93617597D01*
X120807314Y-93617595D01*
X120750250Y-93584649D01*
X120693187Y-93551703D01*
X120629539Y-93534649D01*
X120565892Y-93517595D01*
X120434108Y-93517595D01*
X120306812Y-93551703D01*
X120192686Y-93617595D01*
X120192683Y-93617597D01*
X120099502Y-93710778D01*
X120099500Y-93710781D01*
X120033608Y-93824907D01*
X119999500Y-93952203D01*
X101000000Y-93952203D01*
X101000000Y-92477203D01*
X107149500Y-92477203D01*
X107149500Y-92608986D01*
X107183608Y-92736282D01*
X107206486Y-92775907D01*
X107249500Y-92850409D01*
X107342686Y-92943595D01*
X107456814Y-93009487D01*
X107456816Y-93009487D01*
X107456817Y-93009488D01*
X107508164Y-93023246D01*
X107567825Y-93059609D01*
X107595848Y-93110927D01*
X107609608Y-93162282D01*
X107609609Y-93162283D01*
X107675500Y-93276409D01*
X107768686Y-93369595D01*
X107882814Y-93435487D01*
X108010108Y-93469595D01*
X108010110Y-93469595D01*
X108141890Y-93469595D01*
X108141892Y-93469595D01*
X108269186Y-93435487D01*
X108383314Y-93369595D01*
X108476500Y-93276409D01*
X108542392Y-93162281D01*
X108576500Y-93034987D01*
X108576500Y-92903203D01*
X108542392Y-92775909D01*
X108476500Y-92661781D01*
X108383314Y-92568595D01*
X108269188Y-92502704D01*
X108269187Y-92502703D01*
X108217832Y-92488943D01*
X108158172Y-92452577D01*
X108130151Y-92401259D01*
X108116393Y-92349912D01*
X108116392Y-92349910D01*
X108116392Y-92349909D01*
X108050500Y-92235781D01*
X107957314Y-92142595D01*
X107900250Y-92109649D01*
X107843187Y-92076703D01*
X107779539Y-92059649D01*
X107715892Y-92042595D01*
X107584108Y-92042595D01*
X107456812Y-92076703D01*
X107342686Y-92142595D01*
X107342683Y-92142597D01*
X107249502Y-92235778D01*
X107249500Y-92235781D01*
X107183608Y-92349907D01*
X107149500Y-92477203D01*
X101000000Y-92477203D01*
X101000000Y-90552203D01*
X141224500Y-90552203D01*
X141224500Y-90683986D01*
X141258608Y-90811282D01*
X141291554Y-90868345D01*
X141324500Y-90925409D01*
X141417686Y-91018595D01*
X141531814Y-91084487D01*
X141659108Y-91118595D01*
X141659110Y-91118595D01*
X141790890Y-91118595D01*
X141790892Y-91118595D01*
X141918186Y-91084487D01*
X141962999Y-91058613D01*
X142030898Y-91042140D01*
X142087000Y-91058613D01*
X142102800Y-91067735D01*
X142131811Y-91084486D01*
X142131813Y-91084486D01*
X142131814Y-91084487D01*
X142259108Y-91118595D01*
X142259110Y-91118595D01*
X142390890Y-91118595D01*
X142390892Y-91118595D01*
X142518186Y-91084487D01*
X142632314Y-91018595D01*
X142725500Y-90925409D01*
X142791392Y-90811281D01*
X142825500Y-90683987D01*
X142825500Y-90552203D01*
X142791392Y-90424909D01*
X142725500Y-90310781D01*
X142632314Y-90217595D01*
X142562999Y-90177576D01*
X142518187Y-90151703D01*
X142454539Y-90134649D01*
X142390892Y-90117595D01*
X142259108Y-90117595D01*
X142131814Y-90151703D01*
X142131807Y-90151706D01*
X142086999Y-90177576D01*
X142019099Y-90194049D01*
X141963001Y-90177576D01*
X141918192Y-90151706D01*
X141918188Y-90151704D01*
X141918186Y-90151703D01*
X141790892Y-90117595D01*
X141659108Y-90117595D01*
X141531812Y-90151703D01*
X141417686Y-90217595D01*
X141417683Y-90217597D01*
X141324502Y-90310778D01*
X141324500Y-90310781D01*
X141258608Y-90424907D01*
X141224500Y-90552203D01*
X101000000Y-90552203D01*
X101000000Y-88077203D01*
X140299500Y-88077203D01*
X140299500Y-88208986D01*
X140333608Y-88336282D01*
X140366554Y-88393345D01*
X140399500Y-88450409D01*
X140492686Y-88543595D01*
X140606814Y-88609487D01*
X140734108Y-88643595D01*
X140734110Y-88643595D01*
X140865890Y-88643595D01*
X140865892Y-88643595D01*
X140993186Y-88609487D01*
X141107314Y-88543595D01*
X141200500Y-88450409D01*
X141266392Y-88336281D01*
X141300500Y-88208987D01*
X141300500Y-88077203D01*
X141266392Y-87949909D01*
X141200500Y-87835781D01*
X141107314Y-87742595D01*
X141035559Y-87701167D01*
X140993187Y-87676703D01*
X140967433Y-87669802D01*
X140865892Y-87642595D01*
X140734108Y-87642595D01*
X140606812Y-87676703D01*
X140492686Y-87742595D01*
X140492683Y-87742597D01*
X140399502Y-87835778D01*
X140399500Y-87835781D01*
X140333608Y-87949907D01*
X140299500Y-88077203D01*
X101000000Y-88077203D01*
X101000000Y-87502203D01*
X138324500Y-87502203D01*
X138324500Y-87633987D01*
X138330694Y-87657104D01*
X138358608Y-87761282D01*
X138391554Y-87818345D01*
X138424500Y-87875409D01*
X138517686Y-87968595D01*
X138631814Y-88034487D01*
X138759108Y-88068595D01*
X138759110Y-88068595D01*
X138890890Y-88068595D01*
X138890892Y-88068595D01*
X139018186Y-88034487D01*
X139132314Y-87968595D01*
X139225500Y-87875409D01*
X139291392Y-87761281D01*
X139325500Y-87633987D01*
X139325500Y-87543416D01*
X149559500Y-87543416D01*
X149559500Y-89292773D01*
X149574032Y-89365830D01*
X149574033Y-89365834D01*
X149574034Y-89365835D01*
X149629399Y-89448696D01*
X149712260Y-89504061D01*
X149712264Y-89504062D01*
X149785321Y-89518594D01*
X149785324Y-89518595D01*
X149785326Y-89518595D01*
X151534676Y-89518595D01*
X151534677Y-89518594D01*
X151607740Y-89504061D01*
X151690601Y-89448696D01*
X151745966Y-89365835D01*
X151760500Y-89292769D01*
X151760500Y-88331484D01*
X152099500Y-88331484D01*
X152099500Y-88504705D01*
X152121497Y-88643594D01*
X152126598Y-88675796D01*
X152180127Y-88840540D01*
X152258768Y-88994883D01*
X152360586Y-89135023D01*
X152483072Y-89257509D01*
X152623212Y-89359327D01*
X152777555Y-89437968D01*
X152942299Y-89491497D01*
X153113389Y-89518595D01*
X153113390Y-89518595D01*
X153286610Y-89518595D01*
X153286611Y-89518595D01*
X153457701Y-89491497D01*
X153622445Y-89437968D01*
X153776788Y-89359327D01*
X153916928Y-89257509D01*
X154039414Y-89135023D01*
X154141232Y-88994883D01*
X154219873Y-88840540D01*
X154273402Y-88675796D01*
X154300500Y-88504706D01*
X154300500Y-88331484D01*
X154639500Y-88331484D01*
X154639500Y-88504705D01*
X154661497Y-88643594D01*
X154666598Y-88675796D01*
X154720127Y-88840540D01*
X154798768Y-88994883D01*
X154900586Y-89135023D01*
X155023072Y-89257509D01*
X155163212Y-89359327D01*
X155317555Y-89437968D01*
X155482299Y-89491497D01*
X155653389Y-89518595D01*
X155653390Y-89518595D01*
X155826610Y-89518595D01*
X155826611Y-89518595D01*
X155997701Y-89491497D01*
X156162445Y-89437968D01*
X156316788Y-89359327D01*
X156456928Y-89257509D01*
X156579414Y-89135023D01*
X156681232Y-88994883D01*
X156759873Y-88840540D01*
X156813402Y-88675796D01*
X156840500Y-88504706D01*
X156840500Y-88331484D01*
X157179500Y-88331484D01*
X157179500Y-88504705D01*
X157201497Y-88643594D01*
X157206598Y-88675796D01*
X157260127Y-88840540D01*
X157338768Y-88994883D01*
X157440586Y-89135023D01*
X157563072Y-89257509D01*
X157703212Y-89359327D01*
X157857555Y-89437968D01*
X158022299Y-89491497D01*
X158193389Y-89518595D01*
X158193390Y-89518595D01*
X158366610Y-89518595D01*
X158366611Y-89518595D01*
X158537701Y-89491497D01*
X158702445Y-89437968D01*
X158856788Y-89359327D01*
X158996928Y-89257509D01*
X159119414Y-89135023D01*
X159221232Y-88994883D01*
X159299873Y-88840540D01*
X159353402Y-88675796D01*
X159380500Y-88504706D01*
X159380500Y-88331484D01*
X159353402Y-88160394D01*
X159299873Y-87995650D01*
X159221232Y-87841307D01*
X159119414Y-87701167D01*
X158996928Y-87578681D01*
X158856788Y-87476863D01*
X158702445Y-87398222D01*
X158537701Y-87344693D01*
X158537699Y-87344692D01*
X158537698Y-87344692D01*
X158406271Y-87323876D01*
X158366611Y-87317595D01*
X158193389Y-87317595D01*
X158153728Y-87323876D01*
X158022302Y-87344692D01*
X157857552Y-87398223D01*
X157703211Y-87476863D01*
X157623256Y-87534954D01*
X157563072Y-87578681D01*
X157563070Y-87578683D01*
X157563069Y-87578683D01*
X157440588Y-87701164D01*
X157440588Y-87701165D01*
X157440586Y-87701167D01*
X157410487Y-87742595D01*
X157338768Y-87841306D01*
X157260128Y-87995647D01*
X157206597Y-88160397D01*
X157179500Y-88331484D01*
X156840500Y-88331484D01*
X156813402Y-88160394D01*
X156759873Y-87995650D01*
X156681232Y-87841307D01*
X156579414Y-87701167D01*
X156456928Y-87578681D01*
X156316788Y-87476863D01*
X156162445Y-87398222D01*
X155997701Y-87344693D01*
X155997699Y-87344692D01*
X155997698Y-87344692D01*
X155866271Y-87323876D01*
X155826611Y-87317595D01*
X155653389Y-87317595D01*
X155613728Y-87323876D01*
X155482302Y-87344692D01*
X155317552Y-87398223D01*
X155163211Y-87476863D01*
X155083256Y-87534954D01*
X155023072Y-87578681D01*
X155023070Y-87578683D01*
X155023069Y-87578683D01*
X154900588Y-87701164D01*
X154900588Y-87701165D01*
X154900586Y-87701167D01*
X154870487Y-87742595D01*
X154798768Y-87841306D01*
X154720128Y-87995647D01*
X154666597Y-88160397D01*
X154639500Y-88331484D01*
X154300500Y-88331484D01*
X154273402Y-88160394D01*
X154219873Y-87995650D01*
X154141232Y-87841307D01*
X154039414Y-87701167D01*
X153916928Y-87578681D01*
X153776788Y-87476863D01*
X153622445Y-87398222D01*
X153457701Y-87344693D01*
X153457699Y-87344692D01*
X153457698Y-87344692D01*
X153326271Y-87323876D01*
X153286611Y-87317595D01*
X153113389Y-87317595D01*
X153073728Y-87323876D01*
X152942302Y-87344692D01*
X152777552Y-87398223D01*
X152623211Y-87476863D01*
X152543256Y-87534954D01*
X152483072Y-87578681D01*
X152483070Y-87578683D01*
X152483069Y-87578683D01*
X152360588Y-87701164D01*
X152360588Y-87701165D01*
X152360586Y-87701167D01*
X152330487Y-87742595D01*
X152258768Y-87841306D01*
X152180128Y-87995647D01*
X152126597Y-88160397D01*
X152099500Y-88331484D01*
X151760500Y-88331484D01*
X151760500Y-87543421D01*
X151760500Y-87543418D01*
X151760499Y-87543416D01*
X151745967Y-87470359D01*
X151745966Y-87470355D01*
X151690601Y-87387494D01*
X151607740Y-87332129D01*
X151607739Y-87332128D01*
X151607735Y-87332127D01*
X151534677Y-87317595D01*
X151534674Y-87317595D01*
X149785326Y-87317595D01*
X149785323Y-87317595D01*
X149712264Y-87332127D01*
X149712260Y-87332128D01*
X149629399Y-87387494D01*
X149574033Y-87470355D01*
X149574032Y-87470359D01*
X149559500Y-87543416D01*
X139325500Y-87543416D01*
X139325500Y-87502203D01*
X139291392Y-87374909D01*
X139225500Y-87260781D01*
X139132314Y-87167595D01*
X139075250Y-87134649D01*
X139018187Y-87101703D01*
X138954539Y-87084649D01*
X138890892Y-87067595D01*
X138759108Y-87067595D01*
X138631812Y-87101703D01*
X138517686Y-87167595D01*
X138517683Y-87167597D01*
X138424502Y-87260778D01*
X138424500Y-87260781D01*
X138358608Y-87374907D01*
X138333032Y-87470359D01*
X138324500Y-87502203D01*
X101000000Y-87502203D01*
X101000000Y-85402203D01*
X143324500Y-85402203D01*
X143324500Y-85533986D01*
X143358608Y-85661282D01*
X143391554Y-85718345D01*
X143424500Y-85775409D01*
X143517686Y-85868595D01*
X143631814Y-85934487D01*
X143759108Y-85968595D01*
X143759110Y-85968595D01*
X143890890Y-85968595D01*
X143890892Y-85968595D01*
X144018186Y-85934487D01*
X144132314Y-85868595D01*
X144225500Y-85775409D01*
X144291392Y-85661281D01*
X144325500Y-85533987D01*
X144325500Y-85402203D01*
X144291392Y-85274909D01*
X144225500Y-85160781D01*
X144132314Y-85067595D01*
X144075250Y-85034649D01*
X144018187Y-85001703D01*
X143954539Y-84984649D01*
X143890892Y-84967595D01*
X143759108Y-84967595D01*
X143631812Y-85001703D01*
X143517686Y-85067595D01*
X143517683Y-85067597D01*
X143424502Y-85160778D01*
X143424500Y-85160781D01*
X143358608Y-85274907D01*
X143324500Y-85402203D01*
X101000000Y-85402203D01*
X101000000Y-82777203D01*
X131849500Y-82777203D01*
X131849500Y-82908987D01*
X131866554Y-82972634D01*
X131883608Y-83036282D01*
X131916554Y-83093345D01*
X131949500Y-83150409D01*
X132042686Y-83243595D01*
X132156814Y-83309487D01*
X132284108Y-83343595D01*
X132284110Y-83343595D01*
X132415890Y-83343595D01*
X132415892Y-83343595D01*
X132543186Y-83309487D01*
X132657314Y-83243595D01*
X132750500Y-83150409D01*
X132816392Y-83036281D01*
X132850500Y-82908987D01*
X132850500Y-82777203D01*
X132837103Y-82727203D01*
X137024500Y-82727203D01*
X137024500Y-82858987D01*
X137040472Y-82918595D01*
X137058608Y-82986282D01*
X137087476Y-83036281D01*
X137124500Y-83100409D01*
X137217686Y-83193595D01*
X137331814Y-83259487D01*
X137459108Y-83293595D01*
X137459110Y-83293595D01*
X137590890Y-83293595D01*
X137590892Y-83293595D01*
X137718186Y-83259487D01*
X137832314Y-83193595D01*
X137925500Y-83100409D01*
X137991392Y-82986281D01*
X138025500Y-82858987D01*
X138025500Y-82727203D01*
X137991392Y-82599909D01*
X137925500Y-82485781D01*
X137832314Y-82392595D01*
X137762353Y-82352203D01*
X143499500Y-82352203D01*
X143499500Y-82483986D01*
X143533608Y-82611282D01*
X143555909Y-82649907D01*
X143599500Y-82725409D01*
X143692686Y-82818595D01*
X143806814Y-82884487D01*
X143934108Y-82918595D01*
X143934110Y-82918595D01*
X144065890Y-82918595D01*
X144065892Y-82918595D01*
X144193186Y-82884487D01*
X144307314Y-82818595D01*
X144400500Y-82725409D01*
X144466392Y-82611281D01*
X144500500Y-82483987D01*
X144500500Y-82352203D01*
X144466392Y-82224909D01*
X144400500Y-82110781D01*
X144307314Y-82017595D01*
X144250250Y-81984649D01*
X144193187Y-81951703D01*
X144129539Y-81934649D01*
X144065892Y-81917595D01*
X143934108Y-81917595D01*
X143806812Y-81951703D01*
X143692686Y-82017595D01*
X143692683Y-82017597D01*
X143599502Y-82110778D01*
X143599500Y-82110781D01*
X143533608Y-82224907D01*
X143499500Y-82352203D01*
X137762353Y-82352203D01*
X137745712Y-82342595D01*
X137718187Y-82326703D01*
X137654539Y-82309649D01*
X137590892Y-82292595D01*
X137459108Y-82292595D01*
X137331812Y-82326703D01*
X137217686Y-82392595D01*
X137217683Y-82392597D01*
X137124502Y-82485778D01*
X137124500Y-82485781D01*
X137058608Y-82599907D01*
X137024981Y-82725408D01*
X137024500Y-82727203D01*
X132837103Y-82727203D01*
X132816392Y-82649909D01*
X132750500Y-82535781D01*
X132657314Y-82442595D01*
X132600250Y-82409649D01*
X132543187Y-82376703D01*
X132451757Y-82352205D01*
X132415892Y-82342595D01*
X132284108Y-82342595D01*
X132156812Y-82376703D01*
X132042686Y-82442595D01*
X132042683Y-82442597D01*
X131949502Y-82535778D01*
X131949500Y-82535781D01*
X131883608Y-82649907D01*
X131863378Y-82725408D01*
X131849500Y-82777203D01*
X101000000Y-82777203D01*
X101000000Y-81764803D01*
X129399500Y-81764803D01*
X129399500Y-81896586D01*
X129433608Y-82023882D01*
X129466554Y-82080945D01*
X129499500Y-82138009D01*
X129592686Y-82231195D01*
X129706814Y-82297087D01*
X129834108Y-82331195D01*
X129834110Y-82331195D01*
X129965890Y-82331195D01*
X129965892Y-82331195D01*
X130093186Y-82297087D01*
X130207314Y-82231195D01*
X130300500Y-82138009D01*
X130366392Y-82023881D01*
X130400500Y-81896587D01*
X130400500Y-81764803D01*
X130366392Y-81637509D01*
X130300500Y-81523381D01*
X130207314Y-81430195D01*
X130150250Y-81397249D01*
X130093187Y-81364303D01*
X130029539Y-81347249D01*
X129965892Y-81330195D01*
X129834108Y-81330195D01*
X129706812Y-81364303D01*
X129592686Y-81430195D01*
X129592683Y-81430197D01*
X129499502Y-81523378D01*
X129499500Y-81523381D01*
X129433608Y-81637507D01*
X129399500Y-81764803D01*
X101000000Y-81764803D01*
X101000000Y-80952203D01*
X107324500Y-80952203D01*
X107324500Y-81083986D01*
X107358608Y-81211282D01*
X107391554Y-81268345D01*
X107424500Y-81325409D01*
X107517686Y-81418595D01*
X107631814Y-81484487D01*
X107759108Y-81518595D01*
X107759110Y-81518595D01*
X107890890Y-81518595D01*
X107890892Y-81518595D01*
X108018186Y-81484487D01*
X108132314Y-81418595D01*
X108225500Y-81325409D01*
X108291392Y-81211281D01*
X108325500Y-81083987D01*
X108325500Y-80952203D01*
X108291392Y-80824909D01*
X108225500Y-80710781D01*
X108132314Y-80617595D01*
X108075250Y-80584649D01*
X108018187Y-80551703D01*
X107954539Y-80534649D01*
X107890892Y-80517595D01*
X107759108Y-80517595D01*
X107631812Y-80551703D01*
X107517686Y-80617595D01*
X107517683Y-80617597D01*
X107424502Y-80710778D01*
X107424500Y-80710781D01*
X107358608Y-80824907D01*
X107324500Y-80952203D01*
X101000000Y-80952203D01*
X101000000Y-80252203D01*
X130799500Y-80252203D01*
X130799500Y-80383986D01*
X130833608Y-80511282D01*
X130837253Y-80517595D01*
X130899500Y-80625409D01*
X130992686Y-80718595D01*
X131106814Y-80784487D01*
X131234108Y-80818595D01*
X131234110Y-80818595D01*
X131365890Y-80818595D01*
X131365892Y-80818595D01*
X131493186Y-80784487D01*
X131607314Y-80718595D01*
X131700500Y-80625409D01*
X131766392Y-80511281D01*
X131800500Y-80383987D01*
X131800500Y-80252203D01*
X132749500Y-80252203D01*
X132749500Y-80383986D01*
X132783608Y-80511282D01*
X132787253Y-80517595D01*
X132849500Y-80625409D01*
X132942686Y-80718595D01*
X133056814Y-80784487D01*
X133184108Y-80818595D01*
X133184110Y-80818595D01*
X133315890Y-80818595D01*
X133315892Y-80818595D01*
X133443186Y-80784487D01*
X133557314Y-80718595D01*
X133650500Y-80625409D01*
X133716392Y-80511281D01*
X133750500Y-80383987D01*
X133750500Y-80252203D01*
X133716392Y-80124909D01*
X133650500Y-80010781D01*
X133557314Y-79917595D01*
X133500250Y-79884649D01*
X133443187Y-79851703D01*
X133379539Y-79834649D01*
X133315892Y-79817595D01*
X133184108Y-79817595D01*
X133056812Y-79851703D01*
X132942686Y-79917595D01*
X132942683Y-79917597D01*
X132849502Y-80010778D01*
X132849500Y-80010781D01*
X132783608Y-80124907D01*
X132749500Y-80252203D01*
X131800500Y-80252203D01*
X131766392Y-80124909D01*
X131700500Y-80010781D01*
X131607314Y-79917595D01*
X131550250Y-79884649D01*
X131493187Y-79851703D01*
X131429539Y-79834649D01*
X131365892Y-79817595D01*
X131234108Y-79817595D01*
X131106812Y-79851703D01*
X130992686Y-79917595D01*
X130992683Y-79917597D01*
X130899502Y-80010778D01*
X130899500Y-80010781D01*
X130833608Y-80124907D01*
X130799500Y-80252203D01*
X101000000Y-80252203D01*
X101000000Y-78291638D01*
X103099499Y-78291638D01*
X103137947Y-78484924D01*
X103137950Y-78484934D01*
X103213364Y-78667002D01*
X103213371Y-78667015D01*
X103322860Y-78830876D01*
X103322863Y-78830880D01*
X103462214Y-78970231D01*
X103462218Y-78970234D01*
X103626079Y-79079723D01*
X103626092Y-79079730D01*
X103808160Y-79155144D01*
X103808165Y-79155146D01*
X103808169Y-79155146D01*
X103808170Y-79155147D01*
X104001456Y-79193595D01*
X104001459Y-79193595D01*
X104198543Y-79193595D01*
X104328582Y-79167727D01*
X104391835Y-79155146D01*
X104573914Y-79079727D01*
X104737782Y-78970234D01*
X104877139Y-78830877D01*
X104986632Y-78667009D01*
X105062051Y-78484930D01*
X105086433Y-78362355D01*
X105100500Y-78291638D01*
X105100500Y-78094551D01*
X105100499Y-78094547D01*
X105100244Y-78093262D01*
X105097050Y-78077203D01*
X111304500Y-78077203D01*
X111304500Y-78208986D01*
X111338608Y-78336282D01*
X111366425Y-78384461D01*
X111404500Y-78450409D01*
X111497686Y-78543595D01*
X111611814Y-78609487D01*
X111739108Y-78643595D01*
X111739110Y-78643595D01*
X111870890Y-78643595D01*
X111870892Y-78643595D01*
X111998186Y-78609487D01*
X112112314Y-78543595D01*
X112205500Y-78450409D01*
X112271392Y-78336281D01*
X112305500Y-78208987D01*
X112305500Y-78077203D01*
X112271392Y-77949909D01*
X112205500Y-77835781D01*
X112112314Y-77742595D01*
X112055250Y-77709649D01*
X111998187Y-77676703D01*
X111934539Y-77659649D01*
X111870892Y-77642595D01*
X111739108Y-77642595D01*
X111611812Y-77676703D01*
X111497686Y-77742595D01*
X111497683Y-77742597D01*
X111404502Y-77835778D01*
X111404500Y-77835781D01*
X111338608Y-77949907D01*
X111304500Y-78077203D01*
X105097050Y-78077203D01*
X105062052Y-77901265D01*
X105062051Y-77901264D01*
X105062051Y-77901260D01*
X105034928Y-77835778D01*
X104986635Y-77719187D01*
X104986628Y-77719174D01*
X104877139Y-77555313D01*
X104877136Y-77555309D01*
X104737785Y-77415958D01*
X104737781Y-77415955D01*
X104573920Y-77306466D01*
X104573907Y-77306459D01*
X104391839Y-77231045D01*
X104391829Y-77231042D01*
X104198543Y-77192595D01*
X104198541Y-77192595D01*
X104001459Y-77192595D01*
X104001457Y-77192595D01*
X103808170Y-77231042D01*
X103808160Y-77231045D01*
X103626092Y-77306459D01*
X103626079Y-77306466D01*
X103462218Y-77415955D01*
X103462214Y-77415958D01*
X103322863Y-77555309D01*
X103322860Y-77555313D01*
X103213371Y-77719174D01*
X103213364Y-77719187D01*
X103137950Y-77901255D01*
X103137947Y-77901265D01*
X103099500Y-78094551D01*
X103099500Y-78094554D01*
X103099500Y-78291636D01*
X103099500Y-78291638D01*
X103099499Y-78291638D01*
X101000000Y-78291638D01*
X101000000Y-76202203D01*
X103499500Y-76202203D01*
X103499500Y-76333987D01*
X103513964Y-76387968D01*
X103533608Y-76461282D01*
X103566554Y-76518345D01*
X103599500Y-76575409D01*
X103692686Y-76668595D01*
X103806814Y-76734487D01*
X103934108Y-76768595D01*
X103934110Y-76768595D01*
X104065890Y-76768595D01*
X104065892Y-76768595D01*
X104193186Y-76734487D01*
X104307314Y-76668595D01*
X104312319Y-76663590D01*
X104373642Y-76630105D01*
X104443334Y-76635089D01*
X104487681Y-76663590D01*
X104492686Y-76668595D01*
X104606814Y-76734487D01*
X104734108Y-76768595D01*
X104734110Y-76768595D01*
X104865890Y-76768595D01*
X104865892Y-76768595D01*
X104993186Y-76734487D01*
X105107314Y-76668595D01*
X105200500Y-76575409D01*
X105266392Y-76461281D01*
X105300500Y-76333987D01*
X105300500Y-76202203D01*
X105266392Y-76074909D01*
X105200500Y-75960781D01*
X105194450Y-75954731D01*
X107099500Y-75954731D01*
X107099500Y-76086515D01*
X107131919Y-76207506D01*
X107133609Y-76213811D01*
X107133609Y-76213812D01*
X107188348Y-76308623D01*
X107204821Y-76376523D01*
X107188348Y-76432623D01*
X107133609Y-76527433D01*
X107133609Y-76527434D01*
X107099500Y-76654731D01*
X107099500Y-76786514D01*
X107133608Y-76913810D01*
X107160490Y-76960369D01*
X107196793Y-77023249D01*
X107213266Y-77091147D01*
X107196793Y-77147248D01*
X107150498Y-77227433D01*
X107150498Y-77227434D01*
X107150498Y-77227435D01*
X107150497Y-77227437D01*
X107123048Y-77329880D01*
X107116389Y-77354731D01*
X107116389Y-77486514D01*
X107150497Y-77613810D01*
X107183443Y-77670873D01*
X107216389Y-77727937D01*
X107309575Y-77821123D01*
X107423703Y-77887015D01*
X107550997Y-77921123D01*
X107550999Y-77921123D01*
X107682779Y-77921123D01*
X107682781Y-77921123D01*
X107810075Y-77887015D01*
X107924203Y-77821123D01*
X108017389Y-77727937D01*
X108083281Y-77613809D01*
X108117389Y-77486515D01*
X108117389Y-77354731D01*
X108083281Y-77227437D01*
X108020094Y-77117995D01*
X108019316Y-77114788D01*
X108017049Y-77112392D01*
X108011139Y-77081080D01*
X108003622Y-77050096D01*
X108004519Y-77046009D01*
X108004090Y-77043735D01*
X108007012Y-77034652D01*
X108012542Y-77009468D01*
X108015776Y-77001476D01*
X108066392Y-76913809D01*
X108084345Y-76846806D01*
X115149500Y-76846806D01*
X115149500Y-77089383D01*
X115181161Y-77329880D01*
X115243947Y-77564199D01*
X115317842Y-77742597D01*
X115336776Y-77788307D01*
X115458064Y-77998384D01*
X115458066Y-77998387D01*
X115458067Y-77998388D01*
X115605733Y-78190831D01*
X115605739Y-78190838D01*
X115777256Y-78362355D01*
X115777263Y-78362361D01*
X115890321Y-78449113D01*
X115969711Y-78510031D01*
X116179788Y-78631319D01*
X116403900Y-78724149D01*
X116638211Y-78786933D01*
X116818586Y-78810679D01*
X116878711Y-78818595D01*
X116878712Y-78818595D01*
X117121289Y-78818595D01*
X117169388Y-78812262D01*
X117361789Y-78786933D01*
X117596100Y-78724149D01*
X117820212Y-78631319D01*
X118030289Y-78510031D01*
X118222738Y-78362360D01*
X118394265Y-78190833D01*
X118541936Y-77998384D01*
X118663224Y-77788307D01*
X118756054Y-77564195D01*
X118818838Y-77329884D01*
X118850500Y-77089383D01*
X118850500Y-76846807D01*
X118818838Y-76606306D01*
X118756054Y-76371995D01*
X118663224Y-76147883D01*
X118541936Y-75937806D01*
X118394265Y-75745357D01*
X118394260Y-75745351D01*
X118222743Y-75573834D01*
X118222736Y-75573828D01*
X118030293Y-75426162D01*
X118030292Y-75426161D01*
X118030289Y-75426159D01*
X117820212Y-75304871D01*
X117763751Y-75281484D01*
X129159500Y-75281484D01*
X129159500Y-75454705D01*
X129185793Y-75620717D01*
X129186598Y-75625796D01*
X129240127Y-75790540D01*
X129318768Y-75944883D01*
X129420586Y-76085023D01*
X129543072Y-76207509D01*
X129683212Y-76309327D01*
X129837555Y-76387968D01*
X130002299Y-76441497D01*
X130173389Y-76468595D01*
X130173390Y-76468595D01*
X130346610Y-76468595D01*
X130346611Y-76468595D01*
X130517701Y-76441497D01*
X130682445Y-76387968D01*
X130836788Y-76309327D01*
X130976928Y-76207509D01*
X131099414Y-76085023D01*
X131201232Y-75944883D01*
X131279873Y-75790540D01*
X131333402Y-75625796D01*
X131360500Y-75454706D01*
X131360500Y-75281484D01*
X136779500Y-75281484D01*
X136779500Y-75454705D01*
X136805793Y-75620717D01*
X136806598Y-75625796D01*
X136860127Y-75790540D01*
X136938768Y-75944883D01*
X137040586Y-76085023D01*
X137163072Y-76207509D01*
X137303212Y-76309327D01*
X137457555Y-76387968D01*
X137622299Y-76441497D01*
X137793389Y-76468595D01*
X137793390Y-76468595D01*
X137966610Y-76468595D01*
X137966611Y-76468595D01*
X138137701Y-76441497D01*
X138302445Y-76387968D01*
X138456788Y-76309327D01*
X138596928Y-76207509D01*
X138719414Y-76085023D01*
X138821232Y-75944883D01*
X138899873Y-75790540D01*
X138953402Y-75625796D01*
X138980500Y-75454706D01*
X138980500Y-75281484D01*
X141859500Y-75281484D01*
X141859500Y-75454705D01*
X141885793Y-75620717D01*
X141886598Y-75625796D01*
X141940127Y-75790540D01*
X142018768Y-75944883D01*
X142120586Y-76085023D01*
X142243072Y-76207509D01*
X142383212Y-76309327D01*
X142537555Y-76387968D01*
X142702299Y-76441497D01*
X142873389Y-76468595D01*
X142873390Y-76468595D01*
X143046610Y-76468595D01*
X143046611Y-76468595D01*
X143217701Y-76441497D01*
X143382445Y-76387968D01*
X143536788Y-76309327D01*
X143676928Y-76207509D01*
X143799414Y-76085023D01*
X143901232Y-75944883D01*
X143979873Y-75790540D01*
X144033402Y-75625796D01*
X144060500Y-75454706D01*
X144060500Y-75281484D01*
X144033402Y-75110394D01*
X143979873Y-74945650D01*
X143901232Y-74791307D01*
X143799414Y-74651167D01*
X143676928Y-74528681D01*
X143628390Y-74493416D01*
X144399500Y-74493416D01*
X144399500Y-76242773D01*
X144414032Y-76315830D01*
X144414033Y-76315834D01*
X144432405Y-76343330D01*
X144469399Y-76398696D01*
X144552260Y-76454061D01*
X144552264Y-76454062D01*
X144625321Y-76468594D01*
X144625324Y-76468595D01*
X144625326Y-76468595D01*
X146374676Y-76468595D01*
X146374677Y-76468594D01*
X146447740Y-76454061D01*
X146530601Y-76398696D01*
X146585966Y-76315835D01*
X146600500Y-76242769D01*
X146600500Y-74493421D01*
X146600500Y-74493418D01*
X146600499Y-74493416D01*
X146585967Y-74420359D01*
X146585966Y-74420355D01*
X146530601Y-74337494D01*
X146447740Y-74282129D01*
X146447739Y-74282128D01*
X146447735Y-74282127D01*
X146374677Y-74267595D01*
X146374674Y-74267595D01*
X144625326Y-74267595D01*
X144625323Y-74267595D01*
X144552264Y-74282127D01*
X144552260Y-74282128D01*
X144469399Y-74337494D01*
X144414033Y-74420355D01*
X144414032Y-74420359D01*
X144399500Y-74493416D01*
X143628390Y-74493416D01*
X143536788Y-74426863D01*
X143382445Y-74348222D01*
X143217701Y-74294693D01*
X143217699Y-74294692D01*
X143217698Y-74294692D01*
X143086271Y-74273876D01*
X143046611Y-74267595D01*
X142873389Y-74267595D01*
X142833728Y-74273876D01*
X142702302Y-74294692D01*
X142537552Y-74348223D01*
X142383211Y-74426863D01*
X142303256Y-74484954D01*
X142243072Y-74528681D01*
X142243070Y-74528683D01*
X142243069Y-74528683D01*
X142120588Y-74651164D01*
X142120588Y-74651165D01*
X142120586Y-74651167D01*
X142105666Y-74671703D01*
X142018768Y-74791306D01*
X141940128Y-74945647D01*
X141886597Y-75110397D01*
X141859500Y-75281484D01*
X138980500Y-75281484D01*
X138953402Y-75110394D01*
X138899873Y-74945650D01*
X138821232Y-74791307D01*
X138719414Y-74651167D01*
X138596928Y-74528681D01*
X138456788Y-74426863D01*
X138302445Y-74348222D01*
X138137701Y-74294693D01*
X138137699Y-74294692D01*
X138137698Y-74294692D01*
X138006271Y-74273876D01*
X137966611Y-74267595D01*
X137793389Y-74267595D01*
X137753728Y-74273876D01*
X137622302Y-74294692D01*
X137457552Y-74348223D01*
X137303211Y-74426863D01*
X137223256Y-74484954D01*
X137163072Y-74528681D01*
X137163070Y-74528683D01*
X137163069Y-74528683D01*
X137040588Y-74651164D01*
X137040588Y-74651165D01*
X137040586Y-74651167D01*
X137025666Y-74671703D01*
X136938768Y-74791306D01*
X136860128Y-74945647D01*
X136806597Y-75110397D01*
X136779500Y-75281484D01*
X131360500Y-75281484D01*
X131333402Y-75110394D01*
X131279873Y-74945650D01*
X131201232Y-74791307D01*
X131099414Y-74651167D01*
X130976928Y-74528681D01*
X130836788Y-74426863D01*
X130682445Y-74348222D01*
X130517701Y-74294693D01*
X130517699Y-74294692D01*
X130517698Y-74294692D01*
X130386271Y-74273876D01*
X130346611Y-74267595D01*
X130173389Y-74267595D01*
X130133728Y-74273876D01*
X130002302Y-74294692D01*
X129837552Y-74348223D01*
X129683211Y-74426863D01*
X129603256Y-74484954D01*
X129543072Y-74528681D01*
X129543070Y-74528683D01*
X129543069Y-74528683D01*
X129420588Y-74651164D01*
X129420588Y-74651165D01*
X129420586Y-74651167D01*
X129405666Y-74671703D01*
X129318768Y-74791306D01*
X129240128Y-74945647D01*
X129186597Y-75110397D01*
X129159500Y-75281484D01*
X117763751Y-75281484D01*
X117596104Y-75212042D01*
X117361785Y-75149256D01*
X117121289Y-75117595D01*
X117121288Y-75117595D01*
X116878712Y-75117595D01*
X116878711Y-75117595D01*
X116638214Y-75149256D01*
X116403895Y-75212042D01*
X116179794Y-75304868D01*
X116179785Y-75304872D01*
X115969706Y-75426162D01*
X115777263Y-75573828D01*
X115777256Y-75573834D01*
X115605739Y-75745351D01*
X115605733Y-75745358D01*
X115458067Y-75937801D01*
X115336777Y-76147880D01*
X115336773Y-76147889D01*
X115243947Y-76371990D01*
X115181161Y-76606309D01*
X115149500Y-76846806D01*
X108084345Y-76846806D01*
X108100500Y-76786515D01*
X108100500Y-76654731D01*
X108066392Y-76527437D01*
X108011650Y-76432622D01*
X107995178Y-76364723D01*
X108011650Y-76308623D01*
X108066392Y-76213809D01*
X108100500Y-76086515D01*
X108100500Y-75954731D01*
X108066392Y-75827437D01*
X108000500Y-75713309D01*
X107969231Y-75682040D01*
X107935746Y-75620717D01*
X107940730Y-75551025D01*
X107969231Y-75506678D01*
X107999231Y-75476678D01*
X108030500Y-75445409D01*
X108096392Y-75331281D01*
X108130500Y-75203987D01*
X108130500Y-75072203D01*
X108096392Y-74944909D01*
X108030500Y-74830781D01*
X107937314Y-74737595D01*
X107880250Y-74704649D01*
X107823187Y-74671703D01*
X107746536Y-74651165D01*
X107695892Y-74637595D01*
X107564108Y-74637595D01*
X107436812Y-74671703D01*
X107322686Y-74737595D01*
X107322683Y-74737597D01*
X107229502Y-74830778D01*
X107229500Y-74830781D01*
X107163608Y-74944907D01*
X107163410Y-74945647D01*
X107129500Y-75072203D01*
X107129500Y-75203987D01*
X107146554Y-75267634D01*
X107163608Y-75331282D01*
X107194045Y-75383999D01*
X107229500Y-75445409D01*
X107229502Y-75445411D01*
X107260769Y-75476678D01*
X107294254Y-75538001D01*
X107289270Y-75607693D01*
X107260769Y-75652040D01*
X107199502Y-75713306D01*
X107199500Y-75713309D01*
X107133608Y-75827435D01*
X107104036Y-75937801D01*
X107099500Y-75954731D01*
X105194450Y-75954731D01*
X105107314Y-75867595D01*
X105050250Y-75834649D01*
X104993187Y-75801703D01*
X104929539Y-75784649D01*
X104865892Y-75767595D01*
X104734108Y-75767595D01*
X104606812Y-75801703D01*
X104492686Y-75867595D01*
X104492683Y-75867597D01*
X104487681Y-75872600D01*
X104426358Y-75906085D01*
X104356666Y-75901101D01*
X104312319Y-75872600D01*
X104307316Y-75867597D01*
X104307314Y-75867595D01*
X104250250Y-75834649D01*
X104193187Y-75801703D01*
X104129539Y-75784649D01*
X104065892Y-75767595D01*
X103934108Y-75767595D01*
X103806812Y-75801703D01*
X103692686Y-75867595D01*
X103692683Y-75867597D01*
X103599502Y-75960778D01*
X103599500Y-75960781D01*
X103533608Y-76074907D01*
X103514055Y-76147883D01*
X103499500Y-76202203D01*
X101000000Y-76202203D01*
X101000000Y-73592095D01*
X101019685Y-73525056D01*
X101072489Y-73479301D01*
X101124000Y-73468095D01*
X176376000Y-73468095D01*
X176443039Y-73487780D01*
G37*
G04 #@! TD.AperFunction*
M02*
